<?xml version="1.0" standalone="no"?>
<!DOCTYPE svg PUBLIC "-//W3C//DTD SVG 20010904//EN"
 "http://www.w3.org/TR/2001/REC-SVG-20010904/DTD/svg10.dtd">
<svg version="1.0" xmlns="http://www.w3.org/2000/svg"
 width="512.000000pt" height="512.000000pt" viewBox="0 0 512.000000 512.000000"
 preserveAspectRatio="xMidYMid meet">

<g transform="translate(0.000000,512.000000) scale(0.100000,-0.100000)"
fill="#000000" stroke="none">
<path d="M2470 4834 c-202 -57 -531 -111 -820 -134 -74 -6 -310 -14 -523 -17
l-388 -6 4 -1221 c3 -1059 5 -1235 19 -1327 61 -401 190 -684 422 -926 172
-181 331 -293 725 -513 356 -199 455 -262 619 -396 l32 -27 33 27 c163 134
261 197 618 396 401 224 546 326 721 508 235 245 364 528 426 931 14 92 16
268 19 1327 l4 1221 -353 6 c-607 11 -964 49 -1343 143 -55 14 -107 27 -115
28 -8 2 -53 -7 -100 -20z m208 -58 c359 -91 728 -131 1330 -143 l334 -6 -5
-1186 c-4 -1038 -6 -1200 -21 -1301 -78 -539 -300 -889 -758 -1193 -62 -42
-228 -139 -368 -218 -320 -178 -424 -243 -539 -336 l-91 -73 -91 73 c-115 93
-219 158 -539 336 -288 161 -442 260 -568 366 -322 269 -492 587 -558 1045
-15 101 -17 263 -21 1303 l-5 1187 224 0 c584 0 1044 45 1394 134 71 18 142
34 157 34 16 1 72 -9 125 -22z"/>
<path d="M2485 4665 c-102 -30 -395 -85 -555 -104 -232 -28 -402 -39 -728 -47
l-283 -7 4 -1166 c3 -1153 3 -1167 25 -1281 89 -463 306 -769 739 -1042 54
-34 195 -115 313 -181 263 -146 408 -232 489 -292 33 -25 66 -45 71 -45 5 0
38 20 71 45 80 59 229 148 459 275 259 143 385 220 502 307 323 240 502 529
580 933 22 114 22 128 25 1283 l4 1167 -48 0 c-123 1 -615 21 -720 30 -220 19
-442 51 -635 92 -235 49 -250 51 -313 33z m-14 -1131 c66 -113 68 -118 49
-131 -31 -22 -24 -50 27 -109 33 -40 49 -51 54 -42 15 22 10 65 -10 89 -18 23
-18 24 2 66 12 24 23 43 26 43 4 0 16 -18 29 -40 l23 -41 -21 -26 c-20 -26
-21 -74 0 -96 4 -4 32 16 64 45 31 30 56 52 56 50 0 -2 -10 -37 -22 -78 -16
-58 -26 -75 -42 -79 -146 -33 -516 -33 -626 0 -13 4 -50 109 -50 140 0 3 26
-15 57 -40 51 -42 58 -45 64 -28 14 33 9 70 -11 88 -18 16 -18 19 -3 49 30 59
34 60 60 16 22 -37 23 -43 10 -58 -22 -26 -29 -57 -17 -86 l10 -27 40 46 c63
73 67 85 38 110 l-25 21 71 122 c38 67 72 119 74 117 2 -2 35 -57 73 -121z
m-406 -113 c2 -5 -4 -16 -15 -26 -11 -10 -20 -28 -21 -39 0 -20 -1 -20 -10 2
-7 18 -4 28 11 45 l21 21 -23 18 c-17 12 -25 14 -30 5 -6 -9 -8 -9 -8 0 0 6
-3 20 -7 30 -5 13 5 8 35 -15 23 -19 44 -37 47 -41z m736 28 c-8 -21 -10 -21
-10 -4 -1 19 -2 19 -23 -2 -18 -19 -19 -24 -8 -38 11 -13 15 -13 23 -3 6 9 7
8 3 -5 -3 -10 -6 -23 -6 -29 0 -6 -13 2 -28 18 l-28 29 41 37 c42 38 52 37 36
-3z m-794 -41 c-3 -8 -6 -5 -6 6 -1 11 2 17 5 13 3 -3 4 -12 1 -19z m-727
-728 l0 -500 -25 0 -25 0 0 500 0 500 25 0 25 0 0 -500z m120 350 l0 -150 -25
0 -25 0 0 150 0 150 25 0 25 0 0 -150z m519 140 c41 -5 99 -21 129 -35 30 -14
87 -31 126 -37 100 -17 384 -14 474 4 39 8 72 14 72 12 0 -1 -4 -14 -9 -27 -8
-21 -19 -26 -86 -36 -42 -6 -134 -11 -205 -11 l-130 0 0 -115 0 -115 200 0
200 0 0 -90 0 -90 -200 0 -200 0 0 -130 0 -130 264 -2 265 -3 -35 -80 c-19
-44 -38 -82 -42 -86 -4 -4 -177 -9 -384 -13 l-378 -6 -142 190 -143 190 -3
-190 -2 -191 -103 3 -102 3 -3 485 c-1 267 0 491 3 498 5 15 320 17 434 2z
m1361 -402 c96 -227 192 -452 212 -500 l37 -88 -103 0 -104 0 -54 128 -55 127
-179 3 c-151 2 -179 0 -186 -13 -7 -12 -30 -15 -108 -15 -55 0 -100 3 -100 8
0 4 71 177 157 384 l158 378 75 0 75 0 175 -412z m145 235 c42 -98 122 -283
177 -410 l101 -233 166 0 166 0 35 -82 c19 -45 37 -86 38 -90 2 -5 -117 -7
-264 -6 l-267 3 -213 493 c-118 271 -214 495 -214 498 0 2 44 4 99 4 l99 0 77
-177z m-2255 157 c25 -13 41 -65 30 -94 -18 -49 -73 -68 -124 -45 -50 23 -57
103 -13 134 24 17 80 20 107 5z m990 -16 c14 -1 25 -3 25 -4 0 -1 20 -3 45 -5
25 -1 47 -3 50 -5 3 -1 13 -2 23 -1 10 2 17 -4 17 -14 0 -13 -7 -15 -37 -9
-21 4 -57 8 -80 8 -23 1 -44 4 -48 8 -4 4 -13 4 -20 2 -7 -3 -16 -1 -19 4 -3
6 -15 8 -26 5 -14 -4 -20 0 -20 12 0 14 6 15 33 9 17 -4 43 -9 57 -10z m560 0
c0 -11 -6 -15 -20 -11 -11 3 -23 1 -26 -5 -3 -5 -13 -7 -21 -4 -9 4 -21 2 -28
-4 -9 -8 -15 -8 -20 0 -7 12 3 32 13 26 4 -2 23 -1 42 4 53 12 60 11 60 -6z
m-130 -19 c0 -8 -14 -13 -40 -13 -36 -1 -48 6 -35 19 11 12 75 6 75 -6z m-93
-9 c-5 -15 -159 -15 -164 0 -3 8 22 12 82 11 56 0 84 -4 82 -11z m-1297 -136
c0 -18 -7 -20 -80 -20 -73 0 -80 2 -80 20 0 18 7 20 80 20 73 0 80 -2 80 -20z
m-110 -60 c0 -11 -4 -20 -10 -20 -5 0 -10 -14 -10 -30 0 -37 35 -55 76 -40 21
8 25 15 22 42 -3 32 -28 53 -28 24 0 -9 -7 -16 -15 -16 -10 0 -15 10 -15 30 0
29 2 30 46 30 37 0 45 -3 40 -15 -3 -8 -2 -25 3 -38 11 -28 -9 -81 -34 -91
-29 -11 -80 -7 -102 9 -27 19 -38 67 -22 97 21 40 49 50 49 18z m328 -102 c7
-7 12 -21 12 -33 0 -30 -19 -45 -57 -45 -41 0 -62 34 -44 69 13 24 68 30 89 9z
m-348 -83 c0 -33 4 -45 15 -45 11 0 15 11 15 40 0 29 4 40 15 40 11 0 15 -11
15 -40 0 -33 3 -40 20 -40 17 0 20 7 20 45 0 33 4 45 15 45 12 0 15 -14 15
-65 l0 -65 -80 0 -80 0 0 65 c0 51 3 65 15 65 11 0 15 -12 15 -45z m-50 -32
c0 -13 -3 -13 -15 -3 -8 7 -15 19 -15 27 0 13 3 13 15 3 8 -7 15 -19 15 -27z
m398 15 c17 -17 15 -53 -4 -69 -15 -12 -16 -10 -10 19 9 38 -10 45 -24 8 -12
-33 -26 -39 -44 -20 -18 17 -19 24 -10 48 10 26 25 18 18 -9 -8 -34 7 -31 28
5 19 33 28 36 46 18z m-218 -138 l0 -60 -80 0 c-73 0 -80 2 -80 20 0 18 7 20
65 20 l65 0 0 40 c0 29 4 40 15 40 12 0 15 -13 15 -60z m230 40 c0 -4 -9 -10
-20 -13 -11 -3 -20 -12 -20 -21 0 -9 8 -16 20 -16 11 0 20 -4 20 -10 0 -5 -22
-10 -50 -10 l-50 0 0 33 c0 19 2 36 5 39 9 8 95 7 95 -2z m-26 -100 c18 -6 26
-17 26 -33 0 -33 -18 -47 -62 -47 -49 0 -50 18 -1 22 27 2 39 8 41 21 3 14 -4
17 -37 17 -30 0 -41 4 -41 15 0 17 36 20 74 5z m-221 -39 c19 -19 26 -79 12
-101 -12 -20 -68 -39 -97 -33 -74 14 -86 115 -18 151 31 15 79 8 103 -17z
m177 -69 c0 -4 -5 -13 -12 -20 -16 -16 9 -44 36 -40 24 3 34 37 15 49 -7 4
-10 11 -6 15 10 10 37 -16 37 -37 0 -45 -63 -65 -95 -29 -15 17 -16 24 -7 45
11 23 32 35 32 17z m-270 -90 c0 -10 -5 -23 -11 -29 -15 -15 -7 -54 13 -67 28
-17 72 4 76 37 2 18 -2 29 -12 33 -17 6 -23 44 -7 44 5 0 19 -8 31 -18 30 -24
30 -86 1 -115 -29 -30 -93 -29 -123 1 -28 27 -29 83 -3 112 22 25 35 26 35 2z
m336 -97 c-1 -34 -5 -41 -23 -43 -13 -2 -23 1 -23 7 0 6 -11 11 -24 11 -32 0
-43 18 -23 38 12 12 19 13 30 4 15 -13 28 -6 21 11 -2 7 6 12 19 12 21 0 24
-4 23 -40z m1169 -310 c21 -49 37 -101 37 -115 0 -14 -10 -74 -21 -135 -16
-83 -22 -165 -26 -335 -5 -237 0 -237 30 -5 25 202 68 395 87 395 4 0 8 -5 8
-11 0 -6 16 -29 36 -51 l36 -40 -22 -23 c-42 -45 -131 -308 -144 -430 -7 -55
-1 -44 29 60 34 113 124 287 169 324 14 12 24 11 64 -8 26 -12 58 -31 72 -41
22 -17 23 -20 6 -20 -32 0 -113 -59 -175 -126 -109 -119 -183 -321 -135 -368
8 -9 11 -16 5 -16 -5 0 -20 -21 -31 -47 l-21 -48 22 -17 c26 -22 118 -24 157
-4 63 33 97 101 81 160 -7 26 -16 36 -38 41 -20 4 -30 14 -34 31 -2 13 0 27 4
30 19 11 8 24 -21 24 -23 0 -31 -5 -36 -25 -3 -14 -4 -32 0 -40 3 -8 1 -15 -3
-15 -5 0 -12 7 -15 16 -12 32 -5 57 25 85 42 39 83 38 131 -1 56 -46 68 -103
42 -197 -12 -42 13 -23 35 26 22 51 26 78 23 149 -2 36 -9 51 -37 79 -38 38
-45 67 -19 81 9 5 14 14 10 21 -12 19 -53 12 -69 -11 -16 -23 -16 -23 -16 -2
-1 30 24 48 66 48 74 0 119 -92 110 -224 -5 -66 -4 -73 8 -56 22 29 39 123 38
208 0 64 -5 84 -27 122 -30 52 -32 68 -10 87 12 10 20 10 35 1 16 -10 19 -9
19 3 0 9 -31 29 -74 50 -96 45 -177 125 -206 201 -25 69 -25 85 1 118 25 32
66 34 102 6 14 -11 29 -20 34 -21 16 -1 108 -120 131 -170 22 -48 24 -50 55
-44 18 4 51 25 74 48 52 50 64 96 39 142 -15 26 -16 28 -1 14 21 -21 34 -77
24 -111 -10 -39 -67 -91 -116 -107 -45 -15 -53 -33 -33 -72 15 -27 46 -24 66
7 27 41 68 57 127 49 38 -6 57 -14 76 -36 14 -16 34 -29 44 -29 37 0 124 55
180 114 43 45 55 53 44 31 -24 -49 -90 -108 -163 -145 -63 -33 -69 -39 -75
-74 -8 -47 -33 -73 -81 -81 -44 -8 -78 19 -78 64 0 25 -5 31 -31 36 -17 4 -35
3 -39 -1 -11 -11 -40 -121 -40 -152 0 -35 -38 -170 -65 -227 -50 -111 -155
-220 -262 -274 -57 -28 -144 -28 -197 0 l-39 21 -45 -22 c-91 -46 -213 -10
-318 95 -79 79 -113 137 -153 265 -55 176 -84 252 -105 277 -19 21 -27 23 -68
17 -46 -6 -59 -16 -38 -29 33 -21 -8 -75 -57 -75 -42 0 -93 46 -93 83 0 28
-12 40 -56 55 -106 35 -204 161 -204 262 0 66 30 100 88 100 34 0 41 -4 57
-34 18 -33 18 -35 1 -61 -22 -34 -69 -32 -74 3 -2 14 1 21 9 20 7 -2 15 5 17
15 3 13 -3 17 -31 17 -27 0 -36 -5 -45 -25 -27 -60 -3 -124 76 -197 50 -47
119 -88 146 -88 9 0 20 9 26 20 16 29 63 50 113 50 35 0 56 -8 95 -35 41 -28
57 -33 81 -29 48 10 55 64 8 64 -36 1 -101 35 -130 69 -35 42 -37 99 -5 127
l22 19 -17 -25 c-24 -35 -21 -64 10 -100 29 -35 53 -47 115 -55 l43 -6 32 64
c39 79 78 126 142 166 58 37 71 38 100 7 20 -22 23 -31 16 -72 -7 -49 -33
-104 -68 -143 -29 -31 -137 -108 -170 -120 -18 -7 -27 -18 -27 -32 0 -18 3
-19 15 -9 19 16 55 3 55 -20 0 -10 -14 -33 -31 -51 -17 -18 -26 -35 -20 -38 6
-4 7 -21 1 -45 -10 -47 8 -173 21 -141 4 11 10 36 13 56 12 68 111 125 151 86
27 -28 34 -60 19 -89 -8 -16 -16 -28 -17 -28 -1 0 -2 19 -2 42 0 38 -3 43 -25
46 -20 3 -23 1 -12 -9 6 -7 12 -26 12 -41 0 -24 -4 -28 -30 -28 -20 0 -33 -7
-42 -22 -19 -36 -13 -131 13 -193 26 -63 42 -74 27 -18 -7 27 -7 53 2 90 15
70 53 99 124 96 55 -3 68 -12 84 -60 8 -25 7 -34 -3 -43 -10 -9 -15 -5 -20 18
-6 31 -44 56 -70 46 -13 -5 -13 -10 2 -35 17 -28 17 -29 -16 -63 -30 -30 -33
-39 -27 -71 18 -92 83 -142 176 -133 73 7 86 23 60 73 -11 22 -28 46 -38 53
-16 13 -16 14 1 23 24 14 22 56 -8 149 -45 136 -158 271 -269 321 -25 11 -46
22 -46 24 0 2 26 17 57 34 l57 31 33 -22 c86 -59 182 -256 208 -430 5 -30 10
-38 27 -38 21 0 21 3 14 118 -19 344 -37 491 -72 573 -15 34 -14 40 17 135 17
54 33 105 35 113 6 19 8 17 49 -84z m1036 -5 c32 -18 61 -85 53 -128 -9 -53
-27 -77 -20 -28 5 40 -15 104 -37 118 -7 4 -24 8 -39 8 -21 0 -28 -5 -28 -20
0 -13 7 -20 20 -20 24 0 27 -25 4 -34 -23 -9 -53 11 -60 40 -13 51 55 91 107
64z m-439 -57 c-17 -3 -22 -10 -20 -26 2 -12 9 -22 16 -22 6 0 12 -3 12 -7 0
-5 0 -12 0 -18 0 -5 -11 -10 -24 -10 -21 0 -35 20 -36 52 0 15 33 38 53 37 21
-2 21 -2 -1 -6z m-1224 -53 c24 -23 25 -24 16 -58 -5 -19 -12 -23 -38 -20 -22
2 -32 9 -33 23 -2 11 0 14 3 8 7 -15 30 -17 38 -4 11 17 -13 59 -36 64 -22 4
-22 4 3 6 14 0 35 -8 47 -19z m472 -94 c0 -14 4 -27 9 -30 5 -3 9 -16 9 -29 0
-14 7 -46 16 -73 26 -79 66 -312 71 -409 3 -83 3 -86 -6 -35 -32 175 -77 307
-140 412 -42 69 -42 70 -25 96 9 15 24 42 33 60 20 38 33 41 33 8z m169 -926
c10 -5 24 -23 31 -40 10 -25 10 -34 -4 -55 -10 -14 -28 -31 -42 -37 -20 -10
-29 -8 -52 9 -71 52 -10 165 67 123z"/>
<path d="M2342 3516 l-50 -85 24 -16 c34 -22 30 -42 -21 -116 l-44 -64 141 -3
c77 -1 143 -1 145 2 2 2 -16 34 -41 71 -25 36 -46 71 -46 76 0 6 11 20 24 32
l24 23 -46 82 c-26 45 -50 82 -53 82 -4 0 -29 -38 -57 -84z"/>
<path d="M2152 3396 c-9 -20 -8 -29 7 -47 l18 -23 13 23 c10 19 9 28 -1 47
-16 30 -23 30 -37 0z"/>
<path d="M2607 3399 c-20 -28 -20 -29 -2 -53 15 -20 15 -20 30 0 18 24 18 35
2 59 -13 17 -15 17 -30 -6z"/>
<path d="M2050 3287 c0 -2 5 -18 11 -36 8 -22 16 -30 26 -27 8 3 19 6 24 6 6
0 8 4 4 10 -7 11 -65 53 -65 47z"/>
<path d="M2700 3259 c-19 -16 -29 -29 -23 -29 6 0 18 -3 27 -6 11 -4 19 2 26
21 16 42 8 46 -30 14z"/>
<path d="M1690 2850 l0 -153 103 5 c114 6 149 19 191 68 32 39 36 109 7 156
-29 47 -79 66 -197 72 l-104 5 0 -153z"/>
<path d="M2058 2594 c-4 -6 -32 -19 -63 -28 -30 -10 -55 -20 -55 -22 0 -4 130
-164 133 -164 2 0 -2 136 -6 190 -1 19 -5 30 -9 24z"/>
<path d="M2146 2288 c78 -95 90 -109 79 -88 -12 21 -136 170 -142 170 -2 0 26
-37 63 -82z"/>
<path d="M3023 2894 c-20 -38 -96 -265 -91 -270 3 -2 50 -3 105 -2 l99 3 -51
144 c-43 119 -54 141 -62 125z"/>
<path d="M1077 3124 c-11 -11 -8 -49 5 -62 17 -17 63 -15 78 2 6 8 10 25 8 38
-2 19 -10 24 -43 26 -23 2 -44 0 -48 -4z"/>
<path d="M1344 2795 c-9 -22 9 -37 37 -33 16 2 24 10 24 23 0 26 -52 35 -61
10z"/>
<path d="M1347 2603 c-13 -12 -7 -33 8 -33 8 0 15 9 15 20 0 20 -11 26 -23 13z"/>
<path d="M1082 2458 c-21 -21 -14 -57 13 -70 36 -16 75 3 75 36 0 39 -60 62
-88 34z"/>
<path d="M1340 2220 c0 -5 5 -10 10 -10 6 0 10 5 10 10 0 6 -4 10 -10 10 -5 0
-10 -4 -10 -10z"/>
<path d="M1387 2224 c-8 -8 1 -24 14 -24 5 0 9 7 9 15 0 15 -12 20 -23 9z"/>
</g>
</svg>
